<?xml version="1.0" encoding="utf-8"?>
<!-- Generator: Adobe Illustrator 27.6.1, SVG Export Plug-In . SVG Version: 6.00 Build 0)  -->
<svg version="1.1" id="图层_1" xmlns="http://www.w3.org/2000/svg" xmlns:xlink="http://www.w3.org/1999/xlink" x="0px" y="0px"
	 viewBox="0 0 348 431.4" style="enable-background:new 0 0 348 431.4;" xml:space="preserve">
<style type="text/css">
	.st0{fill:#FFFFFF;}
	.st1{fill:#E8362D;}
</style>
<g>
	<g>
		<path class="st0" d="M12.1,411.4c-0.5,3.3-1.1,6.7-1.9,10.1c-0.8,3.4-1.6,6.7-2.7,9.6H0c1.1-3.3,1.9-6.6,2.7-9.9
			c0.8-3.3,1.4-6.6,1.9-10h7.5V411.4z M30.6,388.5v12.7h19.8v6.9H30.6v16.8c0,1.9-0.5,3.4-1.5,4.6c-1.1,1.2-2.5,1.6-4.1,1.6h-9.4
			v-6.9h5.9c0.5,0,0.9-0.2,1.2-0.6c0.4-0.4,0.5-0.8,0.5-1.5V408H7.4c-2.9,0-5.3-2.3-5.3-5.3v-19.1c0-2.9,2.3-5.3,5.3-5.3h30.7
			c2.1,0,4-0.1,5.7-0.5c1.8-0.4,3.5-0.7,5-1.4v7c-1.6,0.7-3.3,1.2-5,1.4c-1.8,0.2-3.8,0.4-5.9,0.4H10.4c-0.6,0-0.9,0.5-0.9,0.9v13.7
			c0,0.6,0.5,0.9,0.9,0.9h12.4v-12.7h7.7V388.5z M43.9,431.2c-0.5-5.3-2.3-15.1-3.5-19.8h7.5c0.7,3.3,1.4,6.6,2,9.9
			c0.6,3.3,1.1,6.6,1.3,10H43.9z"/>
		<g>
			<path class="st0" d="M119,406.7c-0.9-0.4-1.8-0.7-2.6-1.2c-0.7-0.5-1.4-0.8-1.9-1.3c-0.1-0.1-0.2-0.1-0.5-0.1h-5
				c-0.1,0-0.4,0-0.5,0.1c-0.6,0.5-1.3,0.9-2,1.4c-0.8,0.5-1.6,0.8-2.6,1.2c-0.9,0.4-1.9,0.6-2.8,0.8c-0.9,0.2-1.9,0.2-2.8,0.2v4.9
				c1.2,0,2.5-0.1,3.9-0.5v3.8h5.5v2.2h-8.8v4h9v4.8h-1.8l-0.7-3.1h-5.4l0.7,3.1h-2.3v4.3h26v-4.3h-2.3l0.8-3.1h-5.3l-0.8,3.1h-1.8
				v-4.8h9v-4h-9v-2.2h5.5v-3.8c0.6,0.1,1.3,0.2,1.9,0.2c0.4,0,0.7,0.1,1.1,0.1c0.5,0,0.9-0.4,0.9-0.9v-4c-0.9,0-1.8-0.1-2.8-0.4
				C120.8,407.3,119.9,407,119,406.7z M103.7,411.9c1.4-0.4,2.8-0.9,4.1-1.6s2.6-1.4,3.6-2.5c1.1,0.9,2.2,1.8,3.5,2.5
				s2.7,1.2,4.1,1.5h-15.4V411.9z"/>
			<path class="st0" d="M99.5,403.1h51.3v-4.3h-6.1l0.8-2.5h-7.6l-0.8,2.5h-8.2v-3.6h21.1v-4.3h-21.1v-2.3h13.7v-3.8
				c1.3,0.1,2.7,0.2,4,0.4c1.4,0.1,2.7,0.1,4.1,0.1V380c-1.6,0-3.5-0.1-5.5-0.2c-2-0.2-4-0.5-5.9-0.8c-2-0.4-3.8-0.7-5.5-1.2
				c-1.8-0.5-3.2-0.9-4.3-1.4l0,0h-8.8l0,0c-1.2,0.5-2.6,0.9-4.3,1.4s-3.5,0.8-5.5,1.2c-2,0.4-3.9,0.6-5.9,0.8
				c-2,0.2-3.9,0.2-5.5,0.2v5.2c1.3,0,2.7,0,4.1-0.1c1.4-0.1,2.7-0.2,4.1-0.4v3.8h13.7v2.3h-21.1v4.3h21.1v3.6h-8.2l-0.8-2.5h-7.6
				l0.8,2.5h-6.1L99.5,403.1z M111.7,384.1c2.5-0.4,4.8-0.9,7-1.5c1.9-0.5,3.6-1.1,5.3-1.8c0.6-0.2,1.3-0.2,1.9,0
				c1.6,0.7,3.4,1.3,5.3,1.8c2.2,0.6,4.6,1.1,7,1.5H111.7z"/>
			<path class="st0" d="M150.8,412.6c0.5,0,0.9-0.4,0.9-0.9v-4c-0.9,0-1.9-0.1-2.8-0.4c-0.9-0.2-1.9-0.5-2.8-0.8s-1.8-0.7-2.6-1.2
				c-0.7-0.5-1.4-0.8-1.9-1.3c-0.1-0.1-0.2-0.1-0.5-0.1h-5c-0.1,0-0.4,0-0.5,0.1c-0.6,0.5-1.3,0.9-2,1.4c-0.8,0.5-1.6,0.8-2.6,1.2
				c-0.9,0.4-1.9,0.6-2.8,0.8c-0.9,0.2-1.9,0.2-2.8,0.2v4.9c1.2,0,2.5-0.1,3.9-0.5v3.8h5.5v2.2h-9v4h9v4.8h-1.8l-0.7-3.1h-5.3
				l0.7,3.1h-2.2v4.3h26.2V427h-2.3l0.8-3.1h-5.4L144,427h-1.6v-4.8h9v-4h-9v-2.2h5.5v-3.8c0.6,0.1,1.3,0.2,1.9,0.2
				C150.1,412.6,150.4,412.6,150.8,412.6z M130.9,411.9c1.4-0.4,2.8-0.9,4.1-1.6s2.6-1.4,3.6-2.5c1.1,0.9,2.2,1.8,3.5,2.5
				s2.7,1.2,4.1,1.5h-15.4V411.9z"/>
		</g>
		<g>
			<path class="st0" d="M205.6,428c-1.9,0-4.9-0.1-6,0c1.1-4.3,1.9-26.8,1.9-26.8h5.9C207.3,401.3,207.1,421.2,205.6,428z"/>
			<polygon class="st0" points="223.4,403.1 223.4,395.2 235,398.1 235,405.8 			"/>
			<polygon class="st0" points="226.6,381.3 237.1,383.9 237.1,391.9 226.6,389.5 			"/>
			<path class="st0" d="M220.9,407.5l-4.7-3.1V397h4.6v-5.9h-4.6v-8l4.3-0.1c0,0,0.1-4.2,0-5.5c-5.7,0.9-19.7,0.2-19.7,0.2v5.6h8
				v7.7h-9.2v5.9h9.2v34.3h1.5h5.3h0.7v-19.7l4.7,3.3v-7.4H220.9z"/>
			<polygon class="st0" points="249,415 247.1,415 247.1,376.4 239.6,376.4 239.6,415 223.4,415 223.4,421.8 239.6,421.8 
				239.6,431.2 247.1,431.2 247.1,421.8 249,421.8 			"/>
		</g>
		<g>
			<path class="st0" d="M308.6,391.5h3.5v-5.9h-3.5v-9h-0.9h-5.7h-0.8v9h-3.6v5.9h3.6v14.2l-3.8,0.6v6.3l3.8-0.5v10.2
				c0,1.1-0.9,2-2,2h-2.2v6.9h4.2h2.3c2.8,0,5-2.2,5-5v-1.8v-13.4l3.6-0.5v-6.5l-3.6,0.5v-13.1H308.6z"/>
			<path class="st0" d="M347.9,401.2V398c0-2.1-1.8-3.8-3.8-3.8h-9v-7H346v-6.3h-10.9v-4h-7.5v4h-10.9v6.3h10.9v7h-12.2v5.9h12.2
				h7.5h5.2c0.7,0,1.2,0.9,0.6,1.4l-10.7,9.7l-12.3-8.4v8.1l7.4,5l-10.4,7.7v7.7l16-11.7l17.2,11.7v-7.2v-0.9l-12.8-8.7l11.7-10.9
				C347.5,403,347.9,402.2,347.9,401.2z"/>
		</g>
	</g>
	<g>
		<path class="st1" d="M125.2,194.1c0,10.1-8.2,18.3-18.3,18.3s-18.3-8.2-18.3-18.3s8.2-18.3,18.3-18.3
			C117,175.6,125.2,183.9,125.2,194.1"/>
		<path class="st1" d="M285.2,174.9C273.5,91.6,207.3,25.5,124,13.7c-9.7,5.2-18.7,11.6-26.6,19.2v17.7
			c83.2,0,150.9,67.7,150.9,150.9H266C273.6,193.6,280.1,184.7,285.2,174.9"/>
		<path class="st1" d="M299.1,119.3C299.1,53.4,245.7,0,179.7,0c-4.1,0-8.2,0.2-12.3,0.7l-2.7,7.9c58.7,20.5,105.1,67,125.7,125.7
			l8-2.8C298.8,127.3,299.1,123.3,299.1,119.3"/>
		<path class="st1" d="M181,260.9c-37.9,0-73.6-14.8-100.3-41.5S39.2,157,39.2,119.1S54,45.6,80.7,18.8l7.6,7.6
			C63.6,51.2,50,84.1,50,119.1c0,35.1,13.6,67.9,38.4,92.7s57.7,38.4,92.7,38.4c35.1,0,67.9-13.6,92.7-38.4l7.6,7.6
			C254.6,246.2,218.9,260.9,181,260.9"/>
		<path class="st1" d="M179.5,209.7c2.9-29.6-10.2-57.1-32.4-73.9c-11.7-8.8-25.8-14.7-41.5-16.3c-4.1-0.5-7-4-6.7-8.1
			c0.5-4.5,4.1-7,8.1-6.7c16.9,1.8,32.4,7.6,45.5,16.8c28.2,19.5,45.2,53.3,41.5,89.6c-0.6,5.7-1.8,11.4-3.3,16.8l21.6,6.1
			c6.5-1.9,12.7-4.1,18.7-7c1.5-8.2,2.3-16.8,2.3-25.5c0-68.3-50.5-125-116-134.6c-7.9-1.2-15.8-1.2-21.7,0.2
			c-9.3,2.3-17.4,7.4-23.5,14.3C65,89.6,60.5,100.3,60.5,112c0,20.8,13.6,38.2,32.4,44.2c3.5,1.2,9,1.6,11.7,2.1h0.1
			c20.5,3.5,36.1,21.5,36.1,42.9c0,8.7-2.6,16.7-6.9,23.5l14.9,9.5c7.2,1.9,14.5,3.2,22.2,3.8C175.6,229.5,178.5,219.9,179.5,209.7"
			/>
	</g>
	<g>
		<polygon class="st0" points="298.4,355.7 307.1,355.7 307.1,298.3 298.4,298.3 		"/>
		<path class="st0" d="M137.9,306.3L137.9,306.3l14.9-0.1c1.8,0,2.8,1.5,2.8,3.3v11.7c0,1.8-0.9,3.3-2.8,3.3h-14.9V306.3
			L137.9,306.3z M158.5,331.7c0.9-0.5,1.9-1.1,2.7-1.8c1.9-1.8,3.1-4.3,3.1-7.6v-13.7c0-3.3-1.2-5.9-3.1-7.6
			c-1.9-1.8-4.5-2.7-6.9-2.7l-25,0.1v57.5h8.7v-23.1h8.9c2.2,0.1,6.5,1.1,7.7,6.8l3.4,16.3h9.5l-3.5-15.4
			C162.7,335.6,161,333,158.5,331.7"/>
		<path class="st0" d="M4.8,301.1c-1.9,1.8-3.1,4.3-3.1,7.6v36.7c0,3.3,1.2,5.9,3.1,7.6s4.5,2.7,6.9,2.7h23.3v-8.1H13.3
			c-1.8,0-2.8-1.5-2.8-3.3v-14.8H32v-8.1H10.4v-12c0-1.8,0.9-3.3,2.8-3.3h21.9v-8.1H11.9C9.4,298.3,6.7,299.3,4.8,301.1"/>
		<path class="st0" d="M325.9,306.3h21.9v-8.1h-23.3c-2.5,0-5.2,0.9-6.9,2.7c-1.9,1.8-3.1,4.3-3.1,7.6v46.9h8.7v-25.9h21.6v-8.1
			h-21.6v-12C323.2,307.9,324.2,306.3,325.9,306.3"/>
		<path class="st0" d="M67.8,321.6H54.4c-1.8,0-3.1-1.4-3.1-3.1v-8.9c0-1.8,0.9-3.3,2.8-3.3h21.6v-8.1h-23c-2.5,0-5.2,0.9-6.9,2.7
			c-1.9,1.8-3.1,4.3-3.1,7.6v12c0,5.6,4.6,10.1,10.1,10.1h13.4c1.8,0,3.1,1.4,3.1,3.1v10.7c0,1.8-0.9,3.3-2.8,3.3H42.7v8.1h25.2
			c2.5,0,5.2-0.9,6.9-2.7c1.9-1.8,3.1-4.3,3.1-7.6v-13.7C77.9,326.2,73.4,321.6,67.8,321.6"/>
		<path class="st0" d="M175.2,301.1c-1.9,1.8-3.1,4.3-3.1,7.6v36.7c0,3.3,1.2,5.9,3.1,7.6c1.9,1.8,4.5,2.7,6.9,2.7h23.3v-8.1h-21.9
			c-1.8,0-2.8-1.5-2.8-3.3v-14.8h21.6v-8.1h-21.6v-12c0-1.8,0.9-3.3,2.8-3.3h21.9v-8.1h-23.3C179.6,298.3,176.9,299.3,175.2,301.1"
			/>
		<path class="st0" d="M238.1,321.6h-13.4c-1.8,0-3.1-1.4-3.1-3.1v-8.9c0-1.8,0.9-3.3,2.8-3.3H246v-8.1h-23c-2.5,0-5.2,0.9-6.9,2.7
			c-1.9,1.8-3.1,4.3-3.1,7.6v12c0,5.6,4.6,10.1,10.1,10.1h13.4c1.8,0,3.1,1.4,3.1,3.1v10.7c0,1.8-0.9,3.3-2.8,3.3H213v8.1h25.2
			c2.5,0,5.2-0.9,6.9-2.7c1.9-1.8,3.1-4.3,3.1-7.6v-13.7C248.3,326.2,243.7,321.6,238.1,321.6"/>
		<path class="st0" d="M280.5,321.6h-13.4c-1.8,0-3.1-1.4-3.1-3.1v-8.9c0-1.8,0.9-3.3,2.8-3.3h21.6v-8.1h-23c-2.5,0-5.2,0.9-6.9,2.7
			c-1.9,1.8-3.1,4.3-3.1,7.6v12c0,5.6,4.6,10.1,10.1,10.1H279c1.8,0,3.1,1.4,3.1,3.1v10.7c0,1.8-0.9,3.3-2.8,3.3h-23.8v8.1h25.2
			c2.5,0,5.2-0.9,6.9-2.7c1.9-1.8,3.1-4.3,3.1-7.6v-13.7C290.6,326.2,286,321.6,280.5,321.6"/>
		<path class="st0" d="M113.2,322.2c0,1.8-0.9,3.3-2.8,3.3H94.3v-19v-0.1h16.1c1.8,0,2.8,1.5,2.8,3.3V322.2L113.2,322.2z
			 M111.9,298.3l-26.2,0.1v57.5h8.7v-22.3h17.5c2.5,0,5.2-0.9,6.9-2.7c1.9-1.8,3.1-4.3,3.1-7.6v-14.5c0-3.3-1.2-5.9-3.1-7.6
			C117,299.2,114.3,298.3,111.9,298.3"/>
	</g>
</g>
</svg>
