<?xml version="1.0" encoding="utf-8"?>
<!-- Generator: Adobe Illustrator 27.6.1, SVG Export Plug-In . SVG Version: 6.00 Build 0)  -->
<svg version="1.1" id="图层_1" xmlns="http://www.w3.org/2000/svg" xmlns:xlink="http://www.w3.org/1999/xlink" x="0px" y="0px"
	 viewBox="0 0 794 239.2" style="enable-background:new 0 0 794 239.2;" xml:space="preserve">
<style type="text/css">
	.st0{fill:#E8362D;}
</style>
<g>
	<g>
		<path class="st0" d="M78.8,177.8c0,9.2-7.5,16.8-16.8,16.8s-16.8-7.5-16.8-16.8c0-9.2,7.5-16.8,16.8-16.8S78.8,168.5,78.8,177.8"
			/>
		<path class="st0" d="M225.5,160.2c-10.7-76.3-71.3-137-147.8-147.8C68.8,17.2,60.5,23.2,53.3,30v16.2c76.2,0,138.2,62,138.2,138.2
			h16.2C214.9,177.4,220.7,169.3,225.5,160.2"/>
		<path class="st0" d="M238.1,109.3C238.1,49,189.1,0,128.8,0c-3.8,0-7.5,0.2-11.3,0.6L115,7.7c53.7,18.9,96.3,61.5,115.2,115.2
			l7.4-2.6C237.9,116.7,238.1,113.1,238.1,109.3"/>
		<path class="st0" d="M130.1,239.2c-34.7,0-67.3-13.6-92-38.1C13.6,176.6,0,144,0,109.1c0-34.7,13.6-67.3,38.1-92l7,7
			c-22.6,22.6-35.3,53-35.3,85c0,32,12.4,62.2,35.3,85c22.6,22.6,53,35.3,85,35.3s62.2-12.4,85-35.3l7,7
			C197.4,225.6,164.8,239.2,130.1,239.2"/>
		<path class="st0" d="M128.6,192.1c2.6-27.1-9.4-52.4-29.6-67.9c-10.7-8.1-23.8-13.6-38.1-14.9c-3.8-0.4-6.4-3.8-6-7.4
			c0.4-4.1,3.8-6.4,7.4-6c15.5,1.5,29.8,7,41.7,15.3c25.8,17.9,41.5,48.8,38.1,82.2c-0.6,5.3-1.5,10.4-3,15.3l19.8,5.7
			c5.8-1.7,11.7-3.8,17.2-6.4c1.3-7.5,2.3-15.3,2.3-23.4C178.1,122,132,70.1,71.8,61.3c-7.2-0.9-14.5-1.1-20,0.2
			c-8.5,2.1-15.8,6.8-21.5,13.2c-6.6,7.5-10.6,17.3-10.6,28.1c0,19,12.4,35.1,29.6,40.5c3.2,0.9,8.3,1.5,10.7,1.9h0.2
			c18.9,3.2,33.2,19.6,33.2,39.4c0,7.9-2.3,15.3-6.4,21.5l13.8,8.7c6.6,1.7,13.4,2.8,20.4,3.4C125,210.4,127.6,201.5,128.6,192.1"/>
	</g>
	<g>
		<g>
			<polygon points="721.6,106.9 734.2,106.9 734.2,23 721.6,23 			"/>
			<path d="M487.3,34.9L487.3,34.9H509c2.6,0,4.1,2.3,4.1,4.7v17.2c0,2.5-1.5,4.7-4.1,4.7h-21.7V34.9L487.3,34.9z M517.5,71.8
				c1.5-0.6,2.8-1.5,4-2.6c2.6-2.6,4.5-6.4,4.5-11.1v-20c0-4.7-1.7-8.5-4.5-11.1c-2.6-2.6-6.6-4-10.2-4h-36.4v83.9h12.6V73.1h13
				c3.2,0.2,9.4,1.5,11.3,9.8l4.9,23.8h13.8l-5.3-22.4C523.7,77.5,521,73.7,517.5,71.8"/>
			<path d="M293.1,27.1c-2.6,2.6-4.5,6.4-4.5,11.1V92c0,4.7,1.7,8.5,4.5,11.1c2.6,2.6,6.6,4,10.2,4h34.1V95.2h-32
				c-2.6,0-4.1-2.3-4.1-4.7V69h31.5V57.1h-31.5V39.6c0-2.5,1.5-4.7,4.1-4.7h32V23h-34.1C299.7,23,295.8,24.5,293.1,27.1"/>
			<path d="M762,34.9h32V23h-34.1c-3.6,0-7.5,1.3-10.2,4c-2.6,2.6-4.5,6.4-4.5,11.1v68.6h12.6V68.8h31.5V56.9h-31.5V39.4
				C757.8,37.1,759.3,34.9,762,34.9"/>
			<path d="M385.1,57.1h-19.6c-2.5,0-4.5-2.1-4.5-4.5v-13c0-2.5,1.5-4.7,4.1-4.7h31.5V23h-33.6c-3.6,0-7.5,1.3-10.2,4
				c-2.6,2.6-4.5,6.4-4.5,11.1v17.3c0,8.1,6.6,14.7,14.7,14.7h19.6c2.5,0,4.5,2.1,4.5,4.5v15.5c0,2.5-1.5,4.7-4.1,4.7h-34.9v11.9
				h36.9c3.6,0,7.5-1.3,10.2-4c2.6-2.6,4.5-6.4,4.5-11.1v-20C399.8,63.7,393.2,57.1,385.1,57.1"/>
			<path d="M541.8,27.1c-2.6,2.6-4.5,6.4-4.5,11.1V92c0,4.7,1.7,8.5,4.5,11.1c2.6,2.6,6.6,4,10.2,4h34.1V95.2h-32
				c-2.6,0-4.1-2.3-4.1-4.7V69h31.5V57.1h-31.5V39.6c0-2.5,1.5-4.7,4.1-4.7h32V23H552C548.4,23,544.4,24.5,541.8,27.1"/>
			<path d="M633.6,57.1H614c-2.5,0-4.5-2.1-4.5-4.5v-13c0-2.5,1.5-4.7,4.1-4.7h31.5V23h-33.6c-3.6,0-7.5,1.3-10.2,4
				c-2.6,2.6-4.5,6.4-4.5,11.1v17.3c0,8.1,6.6,14.7,14.7,14.7h19.6c2.5,0,4.5,2.1,4.5,4.5v15.5c0,2.5-1.5,4.7-4.1,4.7h-34.9v11.9
				h36.9c3.6,0,7.5-1.3,10.2-4c2.6-2.6,4.5-6.4,4.5-11.1v-20C648.5,63.7,641.9,57.1,633.6,57.1"/>
			<path d="M695.6,57.1H676c-2.5,0-4.5-2.1-4.5-4.5v-13c0-2.5,1.5-4.7,4.1-4.7h31.5V23h-33.6c-3.6,0-7.5,1.3-10.2,4
				c-2.6,2.6-4.5,6.4-4.5,11.1v17.3c0,8.1,6.6,14.7,14.7,14.7h19.6c2.5,0,4.5,2.1,4.5,4.5v15.5c0,2.5-1.5,4.7-4.1,4.7h-34.9v11.9
				h36.9c3.6,0,7.5-1.3,10.2-4c2.6-2.6,4.5-6.4,4.5-11.1v-20C710.3,63.7,703.7,57.1,695.6,57.1"/>
			<path d="M451.5,57.9c0,2.5-1.5,4.7-4.1,4.7h-23.6V34.9l0,0h23.6c2.6,0,4.1,2.3,4.1,4.7V57.9L451.5,57.9z M449.4,23h-38.3v83.9
				h12.6V74.3h25.6c3.6,0,7.5-1.3,10.2-4c2.6-2.6,4.5-6.4,4.5-11.1V38.1c0-4.7-1.7-8.5-4.5-11.1C456.9,24.3,453,23,449.4,23"/>
		</g>
		<g>
			<path d="M306,187c-0.6,4.9-1.5,9.8-2.6,14.7c-1.1,4.9-2.5,9.6-3.8,13.9h-10.7c1.5-4.7,2.8-9.4,4-14.1c1.1-4.7,2.1-9.6,2.8-14.3
				H306V187z M332.9,153.8v18.3h28.7v10h-28.7v24.3c0,2.8-0.8,4.9-2.3,6.6c-1.5,1.7-3.6,2.5-6,2.5H311v-10h8.5
				c0.8,0,1.3-0.2,1.7-0.8c0.6-0.6,0.8-1.3,0.8-2.3v-20.4h-22.6c-4.1,0-7.5-3.4-7.5-7.5v-27.7c0-4.1,3.4-7.5,7.5-7.5h44.5
				c3,0,5.8-0.2,8.3-0.6c2.6-0.4,5.1-1.1,7.4-2.1v10.2c-2.3,0.9-4.7,1.7-7.4,2.1c-2.6,0.4-5.3,0.6-8.5,0.6h-39.8
				c-0.8,0-1.5,0.6-1.5,1.5v20c0,0.8,0.6,1.5,1.5,1.5h17.9v-18.3h11.1V153.8z M351.9,215.5c-0.8-7.5-3.4-21.9-5.1-28.7h10.7
				c1.1,4.7,2.1,9.6,3,14.3c0.9,4.7,1.5,9.4,1.9,14.3H351.9z"/>
			<g>
				<path d="M460.5,180.2c-1.3-0.6-2.6-1.1-3.8-1.7c-1.1-0.6-2.1-1.3-2.8-1.9c-0.2-0.2-0.4-0.2-0.6-0.2H446c-0.2,0-0.4,0-0.6,0.2
					c-0.9,0.8-1.9,1.3-2.8,2.1c-1.1,0.8-2.5,1.3-3.8,1.7c-1.3,0.6-2.6,0.9-4,1.1s-2.6,0.4-4,0.4v7.2c1.7,0,3.6-0.2,5.5-0.6v5.5h8.1
					v3.2h-13v5.8h13v7h-2.5l-1.1-4.5h-7.7l1.1,4.5h-3.4v6.4h37.7V210h-3.4l1.3-4.5h-7.7l-1.3,4.5h-2.5v-7h13.2v-5.8h-13.2V194h8.1
					v-5.5c0.9,0.2,1.9,0.4,2.8,0.4c0.6,0,0.9,0.2,1.5,0.2c0.8,0,1.3-0.6,1.3-1.3v-5.8c-1.3,0-2.6-0.2-4-0.4
					C463.2,181.2,461.7,180.6,460.5,180.2z M438.5,187.8c2.1-0.6,4-1.3,6-2.3c1.9-0.9,3.6-2.1,5.3-3.6c1.5,1.3,3.2,2.6,5.1,3.6
					c1.9,0.9,3.8,1.7,5.8,2.3H438.5z"/>
				<path d="M432.3,175.1h74.1v-6.2h-8.9l1.3-3.6h-10.9l-1.3,3.6h-11.9v-5.3h30.5v-6.2h-30.5V154h19.8v-5.5c1.9,0.2,4,0.4,5.8,0.6
					c1.9,0.2,4,0.2,5.8,0.2v-7.4c-2.5,0-5.1-0.2-7.9-0.4s-5.7-0.6-8.5-1.1c-2.8-0.6-5.5-1.1-7.9-1.7c-2.5-0.6-4.5-1.3-6.2-2.1l0,0
					H463l0,0c-1.7,0.8-3.8,1.3-6.2,2.1c-2.5,0.6-5.1,1.1-7.9,1.7c-2.8,0.6-5.7,0.9-8.5,1.1s-5.5,0.4-7.9,0.4v7.4c1.9,0,4,0,5.8-0.2
					c2.1-0.2,4-0.2,5.8-0.6v5.5h19.8v3.4h-30.5v6.2h30.5v5.3H452l-1.1-3.6H440l1.1,3.6h-8.9V175.1z M450,147.6
					c3.6-0.6,7-1.3,10.2-2.3c2.6-0.8,5.3-1.5,7.7-2.6c0.9-0.4,1.9-0.4,2.6,0c2.5,0.9,4.9,1.9,7.7,2.6c3.2,0.9,6.6,1.5,10.2,2.1H450
					V147.6z"/>
				<path d="M506.3,188.9c0.8,0,1.3-0.6,1.3-1.3v-5.8c-1.3,0-2.6-0.2-4-0.4c-1.3-0.4-2.8-0.8-4.1-1.1c-1.3-0.6-2.6-1.1-3.8-1.7
					c-1.1-0.6-1.9-1.3-2.8-1.9c-0.2-0.2-0.4-0.2-0.6-0.2H485c-0.2,0-0.4,0-0.6,0.2c-0.8,0.8-1.9,1.3-2.8,2.1
					c-1.1,0.8-2.5,1.3-3.8,1.7c-1.3,0.6-2.6,0.9-4,1.1s-2.6,0.4-4,0.4v7.2c1.7,0,3.6-0.2,5.5-0.6v5.5h8.1v3.2h-13.2v5.8h13.2v7h-2.6
					l-1.1-4.5H472l1.1,4.5h-3.4v6.4h37.7V210h-3.4l1.3-4.5h-7.7l-1.3,4.5h-2.3v-7h13v-5.8h-13V194h8.1v-5.5c0.9,0.2,1.9,0.4,2.8,0.4
					C505.4,188.7,506,188.9,506.3,188.9z M477.7,187.8c2.1-0.6,4-1.3,6-2.3c1.9-0.9,3.8-2.1,5.3-3.6c1.5,1.3,3.2,2.6,5.1,3.6
					c1.9,0.9,3.8,1.7,5.8,2.3H477.7z"/>
			</g>
			<g>
				<path d="M585.5,211.1c-2.6,0-7.2,0-8.7,0c1.7-6.2,2.6-38.6,2.6-38.6h8.5C588,172.3,587.8,201.1,585.5,211.1z"/>
				<polygon points="611.3,175.1 611.3,163.6 628.1,167.8 628.1,179.1 				"/>
				<polygon points="615.9,143.6 631.1,147.2 631.1,158.9 615.9,155.3 				"/>
				<path d="M607.8,181.3l-6.8-4.5v-10.6h6.6v-8.5H601v-11.7l6.4-0.2c0,0,0.2-6,0-7.9c-8.3,1.3-28.5,0.2-28.5,0.2v8.1h11.5v11.3
					h-13.2v8.5h13.2v49.4h2.1h7.7h0.9V187l6.8,4.7v-10.4H607.8z"/>
				<polygon points="648.3,192.3 645.5,192.3 645.5,136.5 634.7,136.5 634.7,192.3 611.3,192.3 611.3,202.1 634.7,202.1 
					634.7,215.7 645.5,215.7 645.5,202.1 648.3,202.1 				"/>
			</g>
			<g>
				<path d="M734.4,158.3h5.1v-8.5h-5.1v-13h-1.3h-8.3h-1.1v13h-5.3v8.5h5.3v20.5l-5.3,0.9v9.2l5.3-0.6v14.7c0,1.5-1.3,2.8-2.8,2.8
					h-3.2v10h6h3.4c4.1,0,7.4-3.2,7.4-7.4v-2.8v-19.4l5.3-0.8v-9.4l-5.3,0.6L734.4,158.3L734.4,158.3z"/>
				<path d="M791.2,172.3v-4.7c0-3-2.5-5.5-5.5-5.5h-13v-10.2h15.6v-9.2h-15.6v-5.8h-10.9v5.8h-15.6v9.2h15.6v10.2h-17.5v8.5h17.5
					h10.7h7.4c1.1,0,1.7,1.3,0.9,2.1l-15.5,14.1l-17.9-12.3v11.7l10.7,7.4l-15.1,11.1v11.1l23-17l24.9,17v-10.4v-1.1l-18.5-12.6
					l17-15.6C790.6,174.9,791.2,173.6,791.2,172.3z"/>
			</g>
		</g>
	</g>
</g>
</svg>
